<svg xmlns="http://www.w3.org/2000/svg" xmlns:xlink="http://www.w3.org/1999/xlink" version="1.1" width="1000" height="1000" viewBox="0 0 1000 1000" xml:space="preserve">
<desc>Created with Fabric.js 3.5.0</desc>
<defs>
</defs>
<rect x="0" y="0" width="100%" height="100%" fill="#ffffff"/>
<g transform="matrix(0 45.4545 -45.4545 0 500.0005 499.9995)" id="192117">
<path style="stroke: none; stroke-width: 1; stroke-dasharray: none; stroke-linecap: butt; stroke-dashoffset: 0; stroke-linejoin: miter; stroke-miterlimit: 4; is-custom-font: none; font-file-url: none; fill: rgb(0,0,0); fill-rule: evenodd; opacity: 1;" vector-effect="non-scaling-stroke" transform=" translate(-12, -12)" d="M 6 3 C 6 3.47338693 5.67106635 3.86994729 5.22929083 3.97358929 L 5.11662113 3.99327227 L 5 4 L 4 4 L 4 5 L 3.99327227 5.11662113 C 3.9443941 5.53744617 3.63425172 5.87858412 3.22929083 5.97358929 L 3.11662113 5.99327227 L 3 6 L 2.88337887 5.99327227 C 2.46255383 5.9443941 2.12141588 5.63425172 2.02641071 5.22929083 L 2.00672773 5.11662113 L 2 5 L 2 3 L 2.00672773 2.88337887 C 2.0556059 2.46255383 2.36574828 2.12141588 2.77070917 2.02641071 L 2.88337887 2.00672773 L 3 2 L 5 2 L 5.11662113 2.00672773 C 5.61395981 2.06449284 6 2.48716416 6 3 Z M 22 12 C 22 12.5522847 21.5522847 13 21 13 L 3 13 C 2.44771525 13 2 12.5522847 2 12 C 2 11.4477153 2.44771525 11 3 11 L 21 11 C 21.5522847 11 22 11.4477153 22 12 Z M 6 21 C 6 21.4733869 5.67106635 21.8699473 5.22929083 21.9735893 L 5.11662113 21.9932723 L 5 22 L 3 22 L 2.88337887 21.9932723 L 2.77070917 21.9735893 C 2.40624437 21.8880846 2.11858256 21.6032124 2.02906266 21.2403116 L 2.00672773 21.1166211 L 2 21 L 2 19 L 2.00672773 18.8833789 L 2.02641071 18.7707092 C 2.11191536 18.4062444 2.39678757 18.1185826 2.75968842 18.0290627 L 2.88337887 18.0067277 L 3 18 L 3.11662113 18.0067277 L 3.22929083 18.0264107 C 3.59375563 18.1119154 3.88141744 18.3967876 3.97093734 18.7596884 L 3.99327227 18.8833789 L 4 19 L 4 20 L 5 20 L 5.11662113 20.0067277 L 5.22929083 20.0264107 C 5.67106635 20.1300527 6 20.5266131 6 21 Z M 14 3 C 14 3.55228475 13.5522847 4 13 4 L 11 4 C 10.4477153 4 10 3.55228475 10 3 C 10 2.44771525 10.4477153 2 11 2 L 13 2 C 13.5522847 2 14 2.44771525 14 3 Z M 14 21 C 14 21.5128358 13.6139598 21.9355072 13.1166211 21.9932723 L 13 22 L 11 22 C 10.4477153 22 10 21.5522847 10 21 C 10 20.4871642 10.3860402 20.0644928 10.8833789 20.0067277 L 11 20 L 13 20 C 13.5522847 20 14 20.4477153 14 21 Z M 22 5 L 21.9932723 5.11662113 C 21.9399506 5.57570299 21.575703 5.93995063 21.1166211 5.99327227 L 21 6 L 20.8833789 5.99327227 C 20.424297 5.93995063 20.0600494 5.57570299 20.0067277 5.11662113 L 20 5 L 20 4 L 19 4 L 18.8833789 3.99327227 C 18.3860402 3.93550716 18 3.51283584 18 3 C 18 2.48716416 18.3860402 2.06449284 18.8833789 2.00672773 L 19 2 L 21 2 L 21.1166211 2.00672773 C 21.575703 2.06004937 21.9399506 2.42429701 21.9932723 2.88337887 L 22 3 L 22 5 Z M 22 21 L 21.9932723 21.1166211 C 21.9443941 21.5374462 21.6342517 21.8785841 21.2292908 21.9735893 L 21.1166211 21.9932723 L 21 22 L 19 22 L 18.8833789 21.9932723 C 18.3860402 21.9355072 18 21.5128358 18 21 C 18 20.5266131 18.3289337 20.1300527 18.7707092 20.0264107 L 18.8833789 20.0067277 L 19 20 L 20 20 L 20 19 L 20.0067277 18.8833789 C 20.0556059 18.4625538 20.3657483 18.1214159 20.7707092 18.0264107 L 20.8833789 18.0067277 L 21 18 L 21.1166211 18.0067277 C 21.5374462 18.0556059 21.8785841 18.3657483 21.9735893 18.7707092 L 21.9932723 18.8833789 L 22 19 L 22 21 Z" stroke-linecap="round"/>
</g>
</svg>